<svg width="170" height="56" viewBox="0 0 170 56" fill="none" xmlns="http://www.w3.org/2000/svg">
<g clip-path="url(#clip0_1833_14647)">
<path d="M147.9 26.7054V24.4659H145.171V20.9844L145.079 21.0132L142.516 21.8124L142.466 21.828V24.466H138.42V22.9964C138.42 22.3122 138.571 21.7885 138.866 21.4393C139.16 21.0942 139.581 20.9188 140.117 20.9188C140.502 20.9188 140.901 21.0113 141.302 21.1938L141.403 21.2396V18.8811L141.356 18.8634C140.981 18.7261 140.472 18.657 139.84 18.657C139.044 18.657 138.321 18.8336 137.69 19.1834C137.059 19.5337 136.563 20.0339 136.215 20.6697C135.869 21.3049 135.693 22.0384 135.693 22.8502V24.4659H133.793V26.7054H135.693V36.1399H138.42V26.7054H142.466V32.7009C142.466 35.1701 143.609 36.4214 145.863 36.4214C146.233 36.4214 146.623 36.3772 147.021 36.2906C147.426 36.2016 147.702 36.1128 147.864 36.018L147.9 35.9963V33.7361L147.789 33.8109C147.641 33.9114 147.457 33.9936 147.241 34.0547C147.024 34.1169 146.842 34.148 146.702 34.148C146.174 34.148 145.783 34.0031 145.541 33.7169C145.296 33.4282 145.171 32.9232 145.171 32.2169V26.7054H147.9ZM127.701 34.1484C126.711 34.1484 125.931 33.8138 125.381 33.1548C124.827 32.4924 124.547 31.5481 124.547 30.3483C124.547 29.1104 124.827 28.1416 125.381 27.4675C125.931 26.7979 126.704 26.458 127.679 26.458C128.625 26.458 129.378 26.7826 129.917 27.4233C130.459 28.0673 130.734 29.0284 130.734 30.2807C130.734 31.5484 130.475 32.5221 129.965 33.1735C129.459 33.82 128.697 34.1484 127.701 34.1484ZM127.822 24.1847C125.934 24.1847 124.433 24.7487 123.364 25.8612C122.295 26.9738 121.753 28.5135 121.753 30.4379C121.753 32.2657 122.282 33.7359 123.325 34.807C124.369 35.8784 125.789 36.4212 127.546 36.4212C129.377 36.4212 130.848 35.8492 131.917 34.7213C132.986 33.5947 133.528 32.0696 133.528 30.1901C133.528 28.3338 133.019 26.8526 132.016 25.7887C131.013 24.7242 129.602 24.1847 127.822 24.1847ZM117.355 24.1847C116.07 24.1847 115.007 24.5196 114.195 25.18C113.378 25.8443 112.964 26.7156 112.964 27.7699C112.964 28.318 113.053 28.8048 113.229 29.2177C113.407 29.632 113.681 29.9967 114.045 30.3029C114.406 30.6065 114.964 30.9246 115.703 31.2482C116.324 31.5087 116.787 31.7291 117.082 31.9028C117.369 32.073 117.573 32.2441 117.689 32.4108C117.801 32.5739 117.858 32.7971 117.858 33.0725C117.858 33.8568 117.281 34.2385 116.095 34.2385C115.655 34.2385 115.154 34.1448 114.604 33.9603C114.058 33.7786 113.543 33.5124 113.077 33.1712L112.964 33.0884V35.7648L113.005 35.7845C113.391 35.9661 113.878 36.1192 114.451 36.2397C115.024 36.3603 115.544 36.4216 115.996 36.4216C117.39 36.4216 118.513 36.0851 119.332 35.4208C120.157 34.7519 120.574 33.86 120.574 32.7692C120.574 31.9823 120.349 31.3075 119.906 30.7633C119.466 30.2235 118.702 29.728 117.636 29.2899C116.786 28.9425 116.242 28.6542 116.018 28.4328C115.801 28.219 115.692 27.9165 115.692 27.5336C115.692 27.1941 115.827 26.9221 116.106 26.7018C116.386 26.4805 116.777 26.3679 117.266 26.3679C117.721 26.3679 118.186 26.441 118.648 26.5844C119.11 26.7278 119.516 26.9199 119.855 27.1548L119.967 27.2324V24.6935L119.924 24.6748C119.611 24.5382 119.199 24.4213 118.698 24.3265C118.2 24.2322 117.748 24.1847 117.355 24.1847ZM105.853 34.1484C104.863 34.1484 104.082 33.8138 103.532 33.1548C102.979 32.4924 102.699 31.5484 102.699 30.3483C102.699 29.1104 102.979 28.1416 103.533 27.4675C104.083 26.7979 104.856 26.458 105.831 26.458C106.777 26.458 107.53 26.7826 108.069 27.4233C108.611 28.0673 108.886 29.0284 108.886 30.2807C108.886 31.5484 108.627 32.5221 108.117 33.1735C107.611 33.82 106.849 34.1484 105.853 34.1484ZM105.975 24.1847C104.085 24.1847 102.585 24.7487 101.516 25.8612C100.447 26.9738 99.9045 28.5135 99.9045 30.4379C99.9045 32.2664 100.434 33.7359 101.478 34.807C102.521 35.8784 103.941 36.4212 105.698 36.4212C107.529 36.4212 109 35.8492 110.069 34.7213C111.138 33.5947 111.68 32.0696 111.68 30.1901C111.68 28.3338 111.171 26.8526 110.168 25.7887C109.165 24.7242 107.754 24.1847 105.975 24.1847ZM95.764 26.4876V24.4659H93.0695V36.1397H95.764V30.1681C95.764 29.1527 95.9899 28.3185 96.4356 27.6884C96.8757 27.0658 97.4622 26.7504 98.1782 26.7504C98.421 26.7504 98.6934 26.7911 98.9884 26.8718C99.2805 26.952 99.492 27.0391 99.6167 27.1307L99.73 27.2144V24.4459L99.6864 24.4269C99.4354 24.3182 99.0804 24.2634 98.6313 24.2634C97.9542 24.2634 97.3482 24.4851 96.8292 24.9217C96.3736 25.3054 96.0444 25.8315 95.7926 26.4876H95.764ZM88.2442 24.1847C87.0081 24.1847 85.9055 24.4548 84.9676 24.9873C84.0279 25.5211 83.3011 26.2831 82.8066 27.2521C82.3143 28.2187 82.0643 29.3478 82.0643 30.607C82.0643 31.71 82.3067 32.7222 82.7857 33.6143C83.2649 34.5079 83.9433 35.2069 84.8019 35.6918C85.6594 36.176 86.6504 36.4215 87.7477 36.4215C89.0282 36.4215 90.1215 36.1606 90.998 35.6461L91.0334 35.6254V33.1096L90.9202 33.1939C90.5231 33.4886 90.0794 33.7239 89.602 33.8934C89.1257 34.0628 88.6916 34.1484 88.3108 34.1484C87.2536 34.1484 86.4048 33.8113 85.7887 33.1466C85.1713 32.481 84.8583 31.5464 84.8583 30.3704C84.8583 29.1869 85.1847 28.2283 85.8281 27.521C86.4696 26.8158 87.3199 26.458 88.3553 26.458C89.2409 26.458 90.1039 26.7637 90.9204 27.3673L91.0334 27.4509V24.8001L90.9969 24.7792C90.6897 24.6039 90.2706 24.4591 89.7504 24.3494C89.2323 24.2399 88.7256 24.1847 88.2442 24.1847ZM80.2086 24.466H77.5141V36.1397H80.2086V24.466ZM78.8889 19.493C78.4454 19.493 78.0587 19.6468 77.7409 19.9517C77.4218 20.2574 77.2599 20.6424 77.2599 21.0967C77.2599 21.5439 77.4199 21.9218 77.7359 22.2194C78.05 22.5161 78.438 22.6666 78.889 22.6666C79.34 22.6666 79.7295 22.5161 80.0472 22.2199C80.3671 21.9218 80.5293 21.544 80.5293 21.0967C80.5293 20.6583 80.3714 20.2773 80.0604 19.964C79.7496 19.6514 79.3554 19.493 78.8889 19.493ZM72.1661 23.6047V36.1397H74.9159V19.8503H71.11L66.2725 31.9496L61.578 19.8503H57.6172V36.1396H60.2013V23.6035H60.29L65.2473 36.1397H67.1974L72.0774 23.6047H72.1661Z" fill="#A5ACB5"/>
<path d="M35.6247 27.325H22.9492V14.4069H35.6247V27.325Z" fill="#A5ACB5"/>
<path d="M49.6206 27.325H36.9453V14.4069H49.6206V27.325Z" fill="#A5ACB5"/>
<path d="M35.6244 41.593H22.9492V28.675H35.6244V41.593Z" fill="#A5ACB5"/>
<path d="M49.6206 41.593H36.9453V28.675H49.6206V41.593Z" fill="#A5ACB5"/>
</g>
<defs>
<clipPath id="clip0_1833_14647">
<rect width="124.95" height="27.2" fill="white" transform="translate(22.9492 14.4)"/>
</clipPath>
</defs>
</svg>
