<svg width="170" height="56" viewBox="0 0 170 56" fill="none" xmlns="http://www.w3.org/2000/svg">
<g clip-path="url(#clip0_1833_14642)">
<path d="M54.2743 22.7406V33.2618C54.2743 33.4323 54.2066 33.5959 54.086 33.7165C53.9654 33.8371 53.8018 33.9048 53.6313 33.9048H50.31C50.1395 33.9047 49.976 33.837 49.8554 33.7164C49.7348 33.5958 49.6671 33.4323 49.667 33.2618V16.1485C49.667 15.978 49.7347 15.8144 49.8553 15.6938C49.9759 15.5732 50.1395 15.5055 50.31 15.5055H53.3835C53.554 15.5055 53.7176 15.5732 53.8382 15.6938C53.9588 15.8144 54.0265 15.978 54.0265 16.1485V18.5585C54.0265 18.5585 55.1252 15.1207 58.3858 15.1207C58.3858 15.1207 61.6109 14.7309 62.9223 18.3104C62.9223 18.3104 64.0209 15.1207 67.3524 15.1207C67.3524 15.1207 72.3068 14.8261 72.3068 19.9526L72.3445 22.776V33.2972C72.3445 33.4678 72.2767 33.6313 72.1562 33.7519C72.0356 33.8725 71.872 33.9403 71.7015 33.9403H68.3799C68.2094 33.9402 68.0459 33.8724 67.9253 33.7518C67.8047 33.6313 67.7369 33.4677 67.7369 33.2972L67.7065 21.8191C67.8009 19.22 65.6983 19.4091 65.6983 19.4091C63.0521 19.4564 63.3067 22.776 63.3067 22.776V33.2972C63.3067 33.4678 63.239 33.6313 63.1184 33.7519C62.9978 33.8725 62.8342 33.9403 62.6637 33.9403H59.3424C59.1719 33.9402 59.0084 33.8724 58.8878 33.7518C58.7672 33.6313 58.6994 33.4677 58.6994 33.2972V22.0788C58.6994 22.0788 58.8936 19.3853 56.5307 19.3853C56.5309 19.3853 54.1918 19.0782 54.2743 22.7406ZM139.887 22.7091V33.23C139.887 33.4005 139.82 33.5641 139.699 33.6846C139.578 33.8052 139.415 33.873 139.244 33.8731L135.79 33.94C135.62 33.9399 135.456 33.8721 135.335 33.7516C135.215 33.631 135.147 33.4675 135.147 33.2969V22.0788C135.147 22.0788 135.341 19.3853 132.979 19.3853C132.979 19.3853 130.722 19.2741 130.722 23.4973V33.2615C130.722 33.432 130.654 33.5955 130.534 33.7161C130.413 33.8367 130.249 33.9045 130.079 33.9045H126.757C126.587 33.9045 126.423 33.8367 126.303 33.7161C126.182 33.5955 126.114 33.432 126.114 33.2615V16.1485C126.114 15.978 126.182 15.8145 126.303 15.6939C126.423 15.5733 126.587 15.5055 126.757 15.5055H129.831C130.001 15.5055 130.165 15.5732 130.286 15.6938C130.406 15.8144 130.474 15.978 130.474 16.1485V18.5585C130.474 18.5585 131.573 15.1207 134.833 15.1207C134.833 15.1207 138.326 14.5908 139.502 18.2438C139.503 18.2435 139.887 18.9971 139.887 22.7091ZM115.906 15.0498C111.659 15.0498 108.216 18.6294 108.216 24.6544C108.216 29.9589 110.874 34.259 115.906 34.259C120.656 34.259 123.597 29.9589 123.597 24.6544C123.597 18.7357 120.154 15.0498 115.906 15.0498ZM118.587 24.867C118.587 27.1353 118.304 28.3403 118.304 28.3403C117.9 30.7381 116.16 30.7415 115.903 30.7287C115.626 30.7398 113.871 30.7148 113.508 28.3403C113.508 28.3403 113.224 27.1353 113.224 24.867V24.4891C113.224 22.2209 113.508 21.0159 113.508 21.0159C113.871 18.6413 115.626 18.6163 115.903 18.6271C116.16 18.6144 117.9 18.6175 118.304 21.0159C118.304 21.0159 118.587 22.2209 118.587 24.4891V24.867ZM106.288 18.5347V16.0793C106.288 15.9088 106.22 15.7453 106.1 15.6247C105.979 15.5041 105.816 15.4364 105.645 15.4363H94.6667C94.4962 15.4363 94.3326 15.504 94.212 15.6246C94.0914 15.7452 94.0237 15.9088 94.0237 16.0793V18.5157C94.0238 18.6862 94.0915 18.8497 94.2121 18.9703C94.3327 19.0909 94.4962 19.1587 94.6667 19.1587H100.393L93.6151 28.9915C93.6151 28.9915 93.348 29.3902 93.3568 29.8305V32.8215C93.3568 32.8215 93.3126 33.847 94.4756 33.2519C94.4756 33.2519 96.5414 32.0038 100.005 32.0038C100.005 32.0038 103.426 31.9612 105.707 33.3593C105.707 33.3593 106.654 33.7897 106.654 32.8433V30.2399C106.654 30.2399 106.739 29.5509 105.836 29.1208C105.836 29.1208 103.211 27.6794 99.7686 27.9158L106.288 18.5347ZM47.1036 30.8444L46.0639 29.2617C45.733 28.6709 45.7568 28.0091 45.7568 28.0091V20.7085C45.8986 14.4 38.9048 14.9435 38.9048 14.9435C32.6876 14.9435 31.7692 19.7819 31.7692 19.7819C31.5101 20.7547 32.2637 20.7783 32.2637 20.7783L35.3017 21.0865C35.3017 21.0865 35.8197 21.205 36.0083 20.5883C36.0083 20.5883 36.4083 18.4774 38.6456 18.4774C41.08 18.4774 41.0548 20.5667 41.0548 20.5667V22.3158C36.1951 22.4783 33.943 23.8273 33.943 23.8273C30.9424 25.5285 31.1313 28.9073 31.1313 28.9073C31.1313 34.4123 36.3766 34.1759 36.3766 34.1759C39.7316 34.1759 41.7163 31.7188 41.7163 31.7188C42.3069 32.7588 43.3939 33.7506 43.3939 33.7506C43.9377 34.3403 44.5045 33.8453 44.5045 33.8453L46.9618 31.7426C47.5051 31.3406 47.1036 30.8444 47.1036 30.8444ZM38.0139 30.7764C36.4358 30.7764 35.8492 29.2082 36.1112 27.6669C36.3734 26.1256 37.7355 24.9144 41.0551 24.9498V25.8869C41.1727 29.9805 39.3275 30.7764 38.0139 30.7764ZM91.2394 30.8444L90.2 29.2617C89.8691 28.6709 89.8927 28.0091 89.8927 28.0091V20.7085C90.0344 14.4 83.0406 14.9435 83.0406 14.9435C76.8234 14.9435 75.9051 19.7819 75.9051 19.7819C75.6459 20.7547 76.3995 20.7783 76.3995 20.7783L79.4375 21.0865C79.4375 21.0865 79.9555 21.205 80.1441 20.5883C80.1441 20.5883 80.5442 18.4774 82.7815 18.4774C85.2159 18.4774 85.1906 20.5667 85.1906 20.5667V22.3158C80.3312 22.4783 78.0789 23.8273 78.0789 23.8273C75.0783 25.5285 75.2671 28.9073 75.2671 28.9073C75.2671 34.4123 80.5124 34.1759 80.5124 34.1759C83.8674 34.1759 85.8521 31.7188 85.8521 31.7188C86.443 32.7588 87.5295 33.7506 87.5295 33.7506C88.0733 34.3403 88.6403 33.8453 88.6403 33.8453L91.0974 31.7426C91.6409 31.3406 91.2394 30.8444 91.2394 30.8444ZM82.1498 30.7764C80.5717 30.7764 79.985 29.2082 80.247 27.6669C80.5093 26.1256 81.8714 24.9144 85.1906 24.9498V25.8869C85.3086 29.9805 83.4637 30.7764 82.1498 30.7764Z" fill="#A5ACB5"/>
<path d="M99.6028 44.663C99.6028 44.663 99.325 45.1464 99.6663 45.2545C99.6663 45.2545 100.052 45.405 100.533 44.9587C100.533 44.9587 104.04 41.8952 104.124 36.3176C104.124 36.3176 104.15 35.621 103.87 35.4305C103.87 35.4305 102.772 34.4585 98.8211 34.7542C98.8211 34.7542 95.3774 34.9867 93.4973 36.6559C93.4973 36.6559 93.3283 36.8036 93.3283 36.9935C93.3283 36.9935 93.2878 37.4038 94.3213 37.226C94.3213 37.226 97.7647 36.7398 99.814 36.9935C99.814 36.9935 100.871 37.1203 101.166 37.4798C101.166 37.4798 101.652 37.8813 101.399 39.2119C101.399 39.2125 100.701 42.5927 99.6028 44.663Z" fill="#A5ACB5"/>
<path d="M98.9089 39.3119C98.9089 39.3119 99.4232 39.9782 98.5933 40.553C98.5933 40.553 89.7282 47.644 74.8429 47.644C74.8429 47.644 59.5204 48.3999 46.7261 36.7752C46.7261 36.7752 46.2775 36.3814 46.556 36.0154C46.556 36.0154 46.8049 35.6785 47.4494 36.0448C47.4494 36.0448 59.4849 43.5445 75.2917 43.5445C75.2917 43.5445 86.2785 43.9698 97.5488 39.1498C97.5488 39.1498 98.4467 38.6845 98.9089 39.3119Z" fill="#A5ACB5"/>
</g>
<defs>
<clipPath id="clip0_1833_14642">
<rect width="113.032" height="34" fill="white" transform="translate(28.9004 14.4)"/>
</clipPath>
</defs>
</svg>
