<svg width="170" height="56" viewBox="0 0 170 56" fill="none" xmlns="http://www.w3.org/2000/svg">
<g clip-path="url(#clip0_1833_14646)">
<path d="M85.5017 36.5609C85.5017 36.9494 85.5017 37.0377 85.7637 37.2761L87.2309 38.7242V38.786H80.7254V36.0046C80.0705 37.8377 78.3386 39.05 76.4114 39.0244C73.0669 39.0244 70.6393 36.3754 70.6393 31.5014C70.6393 26.9363 73.2588 23.89 76.9353 23.89C78.565 23.7864 80.0817 24.7356 80.7165 26.2564V20.1199C80.7404 19.9809 80.7252 19.8381 80.6728 19.7071C80.6204 19.5762 80.5327 19.4624 80.4195 19.3782L79.0224 18.0184V17.9566L85.5017 17.1884V36.5609ZM80.7254 35.6779V26.5213C80.4942 26.2298 80.1992 25.9954 79.863 25.8362C79.5268 25.677 79.1585 25.5972 78.7866 25.603C77.2061 25.603 75.6779 27.0511 75.6779 31.3512C75.6779 35.3777 76.9965 36.7993 78.6383 36.7993C79.0499 36.7901 79.4535 36.6837 79.8161 36.4888C80.1788 36.2939 80.4902 36.016 80.7251 35.6779H80.7254ZM89.8157 38.786V26.4242C89.8363 26.2885 89.8232 26.1499 89.7775 26.0206C89.7318 25.8912 89.655 25.7751 89.5538 25.6825L88.1127 24.1814V24.1196H94.6186V36.658C94.6186 37.0465 94.6186 37.1348 94.8805 37.3732L96.3127 38.733V38.7948L89.8157 38.786ZM89.58 19.5987C89.58 18.1359 90.7529 16.95 92.1995 16.95C93.6461 16.95 94.8193 18.1362 94.8193 19.599C94.8193 21.0618 93.6464 22.2479 92.1998 22.2479C90.7532 22.2479 89.58 21.0618 89.58 19.599V19.5987ZM112.171 36.5344C112.171 36.9229 112.171 37.0377 112.433 37.2761L113.9 38.7242V38.786H107.359V35.6161C106.763 37.6205 104.949 39.0009 102.88 39.0244C99.9804 39.0244 98.426 36.8876 98.426 32.8435C98.426 30.8921 98.426 28.7553 98.4869 26.3535C98.5106 26.2218 98.4988 26.0861 98.4528 25.9605C98.4068 25.8348 98.3281 25.7236 98.225 25.6383L96.7843 24.1814V24.1196H103.237V32.1813C103.237 34.8302 103.622 36.5962 105.263 36.5962C105.699 36.5678 106.12 36.431 106.489 36.1981C106.858 35.9652 107.163 35.6437 107.377 35.2629V26.433C107.397 26.2974 107.384 26.1587 107.338 26.0294C107.293 25.9 107.216 25.7839 107.115 25.6913L105.665 24.1814V24.1196H112.171V36.5344ZM134.316 38.786C134.316 38.3092 134.404 32.2342 134.404 30.8391C134.404 28.1901 133.993 26.3624 132.151 26.3624C131.692 26.3774 131.244 26.5004 130.841 26.7213C130.439 26.9423 130.095 27.2549 129.837 27.6339C130.021 28.4595 130.109 29.3042 130.098 30.1504C130.098 31.987 130.037 34.3269 130.011 36.6668C129.987 36.7986 129.999 36.9342 130.045 37.0599C130.091 37.1856 130.17 37.2968 130.273 37.382L131.74 38.7419V38.8037H125.173C125.173 38.3622 125.261 32.2519 125.261 30.8568C125.261 28.1637 124.85 26.38 123.034 26.38C122.592 26.3969 122.161 26.5257 121.783 26.7542C121.404 26.9828 121.089 27.3036 120.868 27.6868V36.6933C120.868 37.0818 120.868 37.1701 121.13 37.4085L122.562 38.7683V38.8301H116.065V26.4683C116.086 26.3327 116.073 26.1941 116.027 26.0647C115.982 25.9353 115.905 25.8192 115.804 25.7266L114.362 24.1814V24.1196H120.868V27.263C121.472 25.188 123.394 23.7935 125.531 23.8812C127.697 23.8812 129.164 25.0997 129.784 27.4131C130.473 25.2795 132.455 23.8479 134.674 23.8812C137.573 23.8812 139.215 26.0445 139.215 30.1327C139.215 32.0841 139.154 34.3093 139.128 36.6492C139.103 36.7843 139.118 36.9238 139.17 37.0508C139.223 37.1778 139.311 37.2867 139.425 37.3644L140.857 38.7242V38.786H134.316ZM52.5893 36.8611L54.5192 38.7242V38.786H44.7301V38.7242L46.695 36.8611C46.7982 36.7758 46.8768 36.6646 46.9228 36.5389C46.9688 36.4133 46.9806 36.2776 46.957 36.1459V24.2344C46.957 23.7311 46.957 23.0512 47.0441 22.4684L40.4423 39.0247H40.364L33.5264 23.7932C33.3778 23.4135 33.3342 23.387 33.238 23.1309V33.1175C33.1562 33.7855 33.2685 34.463 33.5615 35.0689L36.312 38.7245V38.7863H29.0117V38.7245L31.7625 35.0601C32.0531 34.4566 32.1652 33.7826 32.0854 33.1175V22.0802C32.1304 21.5376 31.9683 20.9981 31.6315 20.5703L29.6843 18.0184V17.9566H36.6702L42.5208 30.8571L47.6731 17.9566H54.5103V18.0184L52.5893 20.1817C52.4761 20.2659 52.3884 20.3797 52.336 20.5107C52.2836 20.6416 52.2684 20.7845 52.2923 20.9235V36.1462C52.2672 36.2814 52.282 36.4209 52.3348 36.5479C52.3876 36.6748 52.4761 36.7838 52.5895 36.8614L52.5893 36.8611ZM60.2477 30.8921V30.9539C60.2477 34.7331 62.1776 36.2518 64.4392 36.2518C66.3277 36.3169 68.0757 35.2461 68.8927 33.5234H68.954C68.1681 37.2584 65.88 39.0244 62.4569 39.0244C58.7631 39.0244 55.2788 36.7728 55.2788 31.5543C55.2788 26.071 58.7719 23.8812 62.6315 23.8812C65.7405 23.8812 69.0499 25.3646 69.0499 30.1327V30.8921H60.2477ZM60.2477 30.1327H64.5529V29.3645C64.5529 25.4794 63.7582 24.4463 62.5617 24.4463C61.1121 24.4463 60.2303 25.9915 60.2303 30.1327H60.2477Z" fill="#A5ACB5"/>
</g>
<defs>
<clipPath id="clip0_1833_14646">
<rect width="112.069" height="22.1" fill="white" transform="translate(28.9004 16.95)"/>
</clipPath>
</defs>
</svg>
