<svg width="170" height="56" viewBox="0 0 170 56" fill="none" xmlns="http://www.w3.org/2000/svg">
<g clip-path="url(#clip0_1833_14645)">
<path d="M30.6152 37.758H42.6001V33.823H34.9532V18.8117H30.6152V37.758ZM48.6679 37.758V24.7082H44.3303V37.758H48.6679ZM46.4995 22.9268C48.0118 22.9268 48.9533 21.9246 48.9533 20.6715C48.9252 19.3912 48.0118 18.4175 46.5283 18.4175C45.0444 18.4175 44.0741 19.3916 44.0741 20.6715C44.0741 21.9246 45.0156 22.9268 46.4711 22.9268H46.4995ZM50.6817 37.758H55.0192V30.4701C55.0192 30.0801 55.0473 29.6901 55.1621 29.4123C55.4752 28.633 56.1889 27.8257 57.3874 27.8257C58.9573 27.8257 59.5854 29.0226 59.5854 30.776V37.7577H63.9222V30.2753C63.9222 26.2667 61.7822 24.4015 58.9281 24.4015C56.5884 24.4015 55.5609 25.7096 54.99 26.6007H55.0192V24.7082H50.6817C50.7389 25.9328 50.6817 37.758 50.6817 37.758ZM70.0416 18.8117H65.704V37.758H70.0416V33.527L71.1256 32.1621L74.5217 37.758H79.8576L74.151 29.6571L79.1443 24.1461H73.9228C73.9228 24.1461 70.3558 29.0765 70.0416 29.6617V18.8117Z" fill="#A5ACB5"/>
<path d="M91.4569 32.3144C91.5141 31.9794 91.5998 31.3365 91.5998 30.6096C91.5998 27.2362 89.8874 23.8113 85.3788 23.8113C80.5561 23.8113 78.3301 27.6255 78.3301 31.0849C78.3301 35.3633 81.0413 38.0351 85.7779 38.0351C87.6617 38.0351 89.4018 37.7576 90.8292 37.1728L90.2584 34.3081C89.088 34.6962 87.8895 34.8907 86.406 34.8907C84.3801 34.8907 82.6112 34.0587 82.4683 32.2864L91.4569 32.3137V32.3144ZM82.4399 29.38C82.554 28.2664 83.2965 26.6233 85.151 26.6233C87.1197 26.6233 87.5768 28.3775 87.5768 29.38H82.4402H82.4399ZM102.306 18.8116V25.3703H102.249C101.621 24.4523 100.308 23.8398 98.5686 23.8398C95.2293 23.8398 92.2904 26.5119 92.3184 31.0769C92.3184 35.3084 94.9727 38.0643 98.2824 38.0643C100.081 38.0643 101.792 37.2842 102.649 35.781H102.734L102.906 37.758H106.758C106.701 36.8392 106.643 35.2526 106.643 33.6937V18.8112H102.306L102.306 18.8116ZM102.306 31.7175C102.306 32.051 102.278 32.3857 102.22 32.6631C101.964 33.8609 100.937 34.6951 99.681 34.6951C97.8837 34.6951 96.7132 33.248 96.7132 30.9655C96.7132 28.8225 97.7127 27.0964 99.7098 27.0964C101.051 27.0964 101.992 28.0147 102.249 29.1556C102.306 29.4069 102.306 29.6855 102.306 29.9357V31.7171V31.7175Z" fill="#A5ACB5"/>
<path fill-rule="evenodd" clip-rule="evenodd" d="M113.128 13.55C111.956 13.55 111.006 14.4775 111.006 15.6202V40.3805C111.006 41.5233 111.956 42.45 113.128 42.45H137.601C138.774 42.45 139.724 41.5233 139.724 40.3801V15.6202C139.724 14.4775 138.774 13.55 137.601 13.55H113.128ZM119.711 24.6922V37.7421H115.374V24.6922H119.711ZM119.997 20.6564C119.997 21.9087 119.056 22.9108 117.543 22.9108H117.543H117.515C116.059 22.9108 115.118 21.9087 115.118 20.6564C115.118 19.3756 116.088 18.4015 117.572 18.4015C119.056 18.4015 119.969 19.3756 119.997 20.6564ZM126.449 37.7421H122.112C122.113 37.6654 122.169 25.9129 122.113 24.6926H126.45V26.54C127.026 25.651 128.058 24.3864 130.359 24.3864C133.213 24.3864 135.352 26.2516 135.352 30.2598V37.7421H131.015V30.7616C131.015 29.0071 130.387 27.8105 128.818 27.8105C127.619 27.8105 126.906 28.6174 126.592 29.3971C126.478 29.6753 126.449 30.0657 126.449 30.4553V37.7421ZM122.112 37.7425V37.7421V37.7425Z" fill="#A5ACB5"/>
</g>
<defs>
<clipPath id="clip0_1833_14645">
<rect width="109.139" height="28.9" fill="white" transform="translate(30.5996 13.55)"/>
</clipPath>
</defs>
</svg>
