<svg width="48" height="48" viewBox="0 0 48 48" fill="none" xmlns="http://www.w3.org/2000/svg">
<rect width="48" height="48" rx="4" fill="#2B384C"/>
<path d="M20.5125 19.479C23.0048 19.479 25.025 21.5032 25.025 23.9999C25.025 26.4967 23.0046 28.5208 20.5125 28.5208C18.0205 28.5208 16 26.4967 16 23.9999C16 21.5033 18.0203 19.479 20.5125 19.479ZM27.7188 19.7438C28.9649 19.7438 29.9751 21.6492 29.9751 23.9999H29.9753C29.9753 26.3502 28.9651 28.2561 27.719 28.2561C26.4729 28.2561 25.4627 26.3502 25.4627 23.9999C25.4627 21.6498 26.4727 19.7438 27.7188 19.7438H27.7188ZM31.2064 20.1872C31.6446 20.1872 32 21.8942 32 24C32 26.1051 31.6447 27.8129 31.2064 27.8129C30.7681 27.8129 30.4131 26.1056 30.4131 24C30.4131 21.8943 30.7683 20.1872 31.2064 20.1872Z" fill="white"/>
</svg>
