<svg width="48" height="48" viewBox="0 0 48 48" fill="none" xmlns="http://www.w3.org/2000/svg">
<rect width="48" height="48" rx="4" fill="#2B384C"/>
<path fill-rule="evenodd" clip-rule="evenodd" d="M31.8842 23.9963C31.8842 19.6402 28.3529 16.1089 23.9968 16.1089C19.6407 16.1089 16.1094 19.6402 16.1094 23.9963C16.1094 28.3524 19.6407 31.8837 23.9968 31.8837C28.3529 31.8837 31.8842 28.3524 31.8842 23.9963ZM23.9968 31.8837C23.4663 31.8837 22.9482 31.831 22.4471 31.7311V25.7255H21.1608V23.5811H22.4471V22.2938C22.4471 20.5444 23.1733 19.5042 25.2369 19.5042H26.9548V21.6488H25.8809C25.0776 21.6488 25.0245 21.9484 25.0245 22.5076L25.0216 23.5809H26.9669L26.7392 25.7251H25.0216V31.8175C24.6818 31.8616 24.3395 31.8837 23.9968 31.8837Z" fill="white"/>
</svg>
