<svg width="56" height="56" viewBox="0 0 56 56" fill="none" xmlns="http://www.w3.org/2000/svg">
<path d="M23.2268 37C23.0654 37 22.9628 36.9267 22.9188 36.78L18.9148 21.886L18.8928 21.798C18.8928 21.666 18.9734 21.6 19.1348 21.6H21.2908C21.4521 21.6 21.5548 21.6733 21.5988 21.82L24.1068 31.852C24.1214 31.896 24.1434 31.918 24.1728 31.918C24.2021 31.918 24.2241 31.896 24.2388 31.852L26.6368 21.82C26.6808 21.6733 26.7761 21.6 26.9228 21.6H29.0348C29.1961 21.6 29.2988 21.6733 29.3428 21.82L31.8948 31.874C31.9094 31.918 31.9314 31.94 31.9608 31.94C31.9901 31.94 32.0121 31.918 32.0268 31.874L34.4908 21.82C34.5348 21.6733 34.6374 21.6 34.7988 21.6H36.8448C37.0501 21.6 37.1308 21.6953 37.0868 21.886L33.2808 36.78C33.2368 36.9267 33.1341 37 32.9728 37H30.9268C30.7654 37 30.6628 36.9267 30.6188 36.78L28.0448 26.286C28.0301 26.242 28.0081 26.22 27.9788 26.22C27.9494 26.2053 27.9274 26.2273 27.9128 26.286L25.4488 36.78C25.4048 36.9267 25.3094 37 25.1628 37H23.2268Z" fill="white"/>
</svg>
