<svg width="112" height="112" viewBox="0 0 112 112" fill="none" xmlns="http://www.w3.org/2000/svg">
<rect x="2" y="2" width="108" height="108" rx="2" fill="white"/>
<rect x="2" y="2" width="108" height="108" rx="2" stroke="#E8F1FC" stroke-width="4"/>
<path d="M42.25 71H69.75" stroke="#1777E5" stroke-width="2" stroke-linecap="round" stroke-linejoin="round"/>
<path d="M53.5003 57.25L50.719 44.2813C50.6025 43.7344 50.6098 43.1684 50.7403 42.6247C50.8708 42.0811 51.1212 41.5735 51.4732 41.1391C51.8252 40.7047 52.2699 40.3545 52.7748 40.1141C53.2796 39.8738 53.8318 39.7494 54.3909 39.75H57.6096C58.1687 39.7494 58.7209 39.8738 59.2258 40.1141C59.7306 40.3545 60.1753 40.7047 60.5273 41.1391C60.8793 41.5735 61.1297 42.0811 61.2602 42.6247C61.3907 43.1684 61.398 43.7344 61.2815 44.2813L58.5003 57.25" stroke="#1777E5" stroke-width="2" stroke-linecap="round" stroke-linejoin="round"/>
<path d="M68.5 57.25H43.5C42.8096 57.25 42.25 57.8096 42.25 58.5V64.75C42.25 65.4404 42.8096 66 43.5 66H68.5C69.1904 66 69.75 65.4404 69.75 64.75V58.5C69.75 57.8096 69.1904 57.25 68.5 57.25Z" stroke="#1777E5" stroke-width="2" stroke-linecap="round" stroke-linejoin="round"/>
</svg>
