<svg width="48" height="48" viewBox="0 0 48 48" fill="none" xmlns="http://www.w3.org/2000/svg">
<rect width="48" height="48" rx="4" fill="#2B384C"/>
<path d="M16 18.0215C16 17.508 16.1802 17.0844 16.5405 16.7506C16.9009 16.4169 17.3694 16.25 17.9459 16.25C18.5122 16.25 18.9704 16.4143 19.3205 16.7429C19.6808 17.0818 19.861 17.5234 19.861 18.0677C19.861 18.5606 19.686 18.9714 19.3359 19.3C18.9756 19.6389 18.5019 19.8083 17.9151 19.8083H17.8996C17.3333 19.8083 16.8752 19.6389 16.5251 19.3C16.175 18.9611 16 18.5349 16 18.0215ZM16.2008 31.5V21.2101H19.6293V31.5H16.2008ZM21.529 31.5H24.9575V25.7543C24.9575 25.3948 24.9987 25.1176 25.0811 24.9225C25.2252 24.5733 25.444 24.278 25.7375 24.0367C26.0309 23.7954 26.399 23.6747 26.8417 23.6747C27.9949 23.6747 28.5714 24.4501 28.5714 26.0007V31.5H32V25.6002C32 24.0804 31.6396 22.9276 30.9189 22.142C30.1982 21.3564 29.2458 20.9636 28.0618 20.9636C26.7336 20.9636 25.6988 21.5336 24.9575 22.6735V22.7043H24.9421L24.9575 22.6735V21.2101H21.529C21.5495 21.5387 21.5598 22.5605 21.5598 24.2755C21.5598 25.9905 21.5495 28.3986 21.529 31.5Z" fill="white"/>
</svg>
