<svg width="48" height="48" viewBox="0 0 48 48" fill="none" xmlns="http://www.w3.org/2000/svg">
<rect width="48" height="48" rx="4" fill="#E8F1FC"/>
<path d="M21.0075 30.5431C27.0609 30.5431 30.3712 25.5184 30.3712 21.1612C30.3712 21.0185 30.3683 20.8765 30.3619 20.735C31.006 20.268 31.5619 19.6898 32.0035 19.0275C31.4138 19.2902 30.7793 19.467 30.1136 19.5467C30.7931 19.1385 31.3147 18.4927 31.5608 17.7229C30.9148 18.1069 30.208 18.3776 29.471 18.5233C28.8705 17.8823 28.0155 17.4815 27.0688 17.4815C25.2514 17.4815 23.7776 18.9582 23.7776 20.7784C23.7776 21.0372 23.8065 21.2888 23.863 21.5303C21.1277 21.3924 18.7023 20.0803 17.0791 18.0851C16.7868 18.5883 16.633 19.1602 16.6335 19.7424C16.6335 20.8865 17.2145 21.8963 18.0981 22.4872C17.5754 22.4712 17.0643 22.3298 16.6076 22.0748C16.6071 22.0886 16.6071 22.1021 16.6071 22.1169C16.6071 23.7138 17.7415 25.0471 19.2473 25.3492C18.9645 25.4264 18.6727 25.4654 18.3795 25.4652C18.1679 25.4652 17.9615 25.4443 17.761 25.4058C18.18 26.7159 19.3949 27.6693 20.8354 27.696C19.709 28.5805 18.2901 29.1074 16.7479 29.1074C16.4856 29.1076 16.2234 29.0924 15.9629 29.0617C17.4194 29.9971 19.1488 30.5429 21.0077 30.5429" fill="#1777E5"/>
</svg>
