<svg width="48" height="48" viewBox="0 0 48 48" fill="none" xmlns="http://www.w3.org/2000/svg">
<rect width="48" height="48" rx="4" fill="#E8F1FC"/>
<path fill-rule="evenodd" clip-rule="evenodd" d="M31.8842 23.9965C31.8842 19.6404 28.3529 16.1091 23.9968 16.1091C19.6407 16.1091 16.1094 19.6404 16.1094 23.9965C16.1094 28.3526 19.6407 31.8839 23.9968 31.8839C28.3529 31.8839 31.8842 28.3526 31.8842 23.9965ZM23.9968 31.8839C23.4663 31.8839 22.9482 31.8312 22.4471 31.7313V25.7257H21.1608V23.5813H22.4471V22.294C22.4471 20.5446 23.1733 19.5044 25.2369 19.5044H26.9548V21.649H25.8809C25.0776 21.649 25.0245 21.9486 25.0245 22.5078L25.0216 23.5811H26.9669L26.7392 25.7253H25.0216V31.8177C24.6818 31.8618 24.3395 31.884 23.9968 31.8839Z" fill="#1777E5"/>
</svg>
