<svg width="48" height="48" viewBox="0 0 48 48" fill="none" xmlns="http://www.w3.org/2000/svg">
<rect width="48" height="48" rx="4" fill="#E8F1FC"/>
<path d="M20.5125 19.4791C23.0048 19.4791 25.025 21.5033 25.025 24.0001C25.025 26.4969 23.0046 28.5209 20.5125 28.5209C18.0205 28.5209 16 26.4969 16 24.0001C16 21.5034 18.0203 19.4791 20.5125 19.4791ZM27.7188 19.7439C28.9649 19.7439 29.9751 21.6493 29.9751 24.0001H29.9753C29.9753 26.3503 28.9651 28.2562 27.719 28.2562C26.4729 28.2562 25.4627 26.3503 25.4627 24.0001C25.4627 21.6499 26.4727 19.7439 27.7188 19.7439H27.7188ZM31.2064 20.1873C31.6446 20.1873 32 21.8943 32 24.0001C32 26.1052 31.6447 27.813 31.2064 27.813C30.7681 27.813 30.4131 26.1057 30.4131 24.0001C30.4131 21.8944 30.7683 20.1873 31.2064 20.1873Z" fill="#1777E5"/>
</svg>
